<?xml version="1.0" encoding="utf-8"?>
<!-- Generator: Adobe Illustrator 27.5.0, SVG Export Plug-In . SVG Version: 6.00 Build 0)  -->
<svg version="1.1" xmlns="http://www.w3.org/2000/svg" xmlns:xlink="http://www.w3.org/1999/xlink" x="0px" y="0px"
	 viewBox="0 0 1500 500" style="enable-background:new 0 0 1500 500;" xml:space="preserve">
<g id="BACKGROUND">
	<rect style="fill:#FFFFFF;" width="1500" height="500"/>
</g>
<g id="OBJECTS">
	<g>
		<polygon style="fill:#EDB83F;" points="904.784,35.988 932.522,40.557 904.784,45.126 900.215,72.864 895.646,45.126 
			867.908,40.557 895.646,35.988 900.215,8.25 		"/>
		<polygon style="fill:#EDB83F;" points="274.679,433.052 302.417,437.621 274.679,442.189 270.11,469.927 265.542,442.189 
			237.804,437.621 265.542,433.052 270.11,405.314 		"/>
		<polygon style="fill:#EDB83F;" points="1066.257,286.929 1086.27,290.226 1066.257,293.522 1062.961,313.535 1059.665,293.522 
			1039.652,290.226 1059.665,286.929 1062.961,266.917 		"/>
		<polygon style="fill:#EDB83F;" points="477.295,253.92 497.765,257.292 477.295,260.664 473.923,281.133 470.551,260.664 
			450.082,257.292 470.551,253.92 473.923,233.451 		"/>
		<polygon style="fill:#EDB83F;" points="1447.744,212.415 1468.213,215.786 1447.744,219.158 1444.372,239.628 1441,219.158 
			1420.531,215.786 1441,212.415 1444.372,191.945 		"/>
		<g>
			<path style="fill:#EDB83F;" d="M543,61.978c5.713,0,5.723-8.879,0-8.879C537.287,53.099,537.277,61.978,543,61.978L543,61.978z"
				/>
		</g>
		<g>
			<path style="fill:#EDB83F;" d="M497.765,52.153c9.522,0,9.538-14.799,0-14.799C488.243,37.355,488.227,52.153,497.765,52.153
				L497.765,52.153z"/>
		</g>
		<g>
			<path style="fill:#EDB83F;" d="M1045.355,59.553c9.522,0,9.538-14.799,0-14.799C1035.833,44.754,1035.817,59.553,1045.355,59.553
				L1045.355,59.553z"/>
		</g>
		<g>
			<path style="fill:#EDB83F;" d="M990.22,418.622c9.522,0,9.538-14.799,0-14.799C980.698,403.823,980.682,418.622,990.22,418.622
				L990.22,418.622z"/>
		</g>
		<g>
			<path style="fill:#EDB83F;" d="M331.37,244.397c9.522,0,9.538-14.799,0-14.799C321.848,229.598,321.832,244.397,331.37,244.397
				L331.37,244.397z"/>
		</g>
		<g>
			<path style="fill:#EDB83F;" d="M347.155,215.786c5.713,0,5.723-8.879,0-8.879C341.442,206.907,341.432,215.786,347.155,215.786
				L347.155,215.786z"/>
		</g>
		<g>
			<path style="fill:#EDB83F;" d="M597.724,44.996c5.713,0,5.723-8.879,0-8.879C592.011,36.117,592.002,44.996,597.724,44.996
				L597.724,44.996z"/>
		</g>
		<g>
			<path style="fill:#EDB83F;" d="M306.706,207.894c5.713,0,5.723-8.879,0-8.879C300.993,199.015,300.983,207.894,306.706,207.894
				L306.706,207.894z"/>
		</g>
		<g>
			<path style="fill:#EDB83F;" d="M1168.63,244.397c-9.522,0-9.538-14.799,0-14.799
				C1178.152,229.598,1178.168,244.397,1168.63,244.397L1168.63,244.397z"/>
		</g>
		<g>
			<path style="fill:#EDB83F;" d="M1152.845,215.786c-5.713,0-5.723-8.879,0-8.879
				C1158.558,206.907,1158.568,215.786,1152.845,215.786L1152.845,215.786z"/>
		</g>
		<g>
			<path style="fill:#EDB83F;" d="M1448.66,171.879c-5.713,0-5.723-8.879,0-8.879C1454.374,163,1454.383,171.879,1448.66,171.879
				L1448.66,171.879z"/>
		</g>
		<g>
			<path style="fill:#EDB83F;" d="M351.444,445.02c-9.522,0-9.538-14.799,0-14.799C360.966,430.221,360.982,445.02,351.444,445.02
				L351.444,445.02z"/>
		</g>
		<g>
			<path style="fill:#EDB83F;" d="M371.323,417.499c-5.713,0-5.723-8.879,0-8.879C377.037,408.62,377.046,417.499,371.323,417.499
				L371.323,417.499z"/>
		</g>
		<g>
			<path style="fill:#EDB83F;" d="M1193.294,207.894c-5.713,0-5.723-8.879,0-8.879
				C1199.007,199.015,1199.017,207.894,1193.294,207.894L1193.294,207.894z"/>
		</g>
		<g>
			<path style="fill:#EDB83F;" d="M500.57,445.229c13.007,0,13.029-20.215,0-20.215C487.562,425.014,487.54,445.229,500.57,445.229
				L500.57,445.229z"/>
		</g>
		<g>
			<path style="fill:#EDB83F;" d="M526.186,465.121c5.713,0,5.723-8.879,0-8.879C520.473,456.242,520.464,465.121,526.186,465.121
				L526.186,465.121z"/>
		</g>
		<g>
			<path style="fill:#EDB83F;" d="M523.333,410.212c5.714,0,5.723-8.879,0-8.879C517.62,401.333,517.611,410.212,523.333,410.212
				L523.333,410.212z"/>
		</g>
		<g>
			<path style="fill:#EDB83F;" d="M1030.669,450.192c5.713,0,5.723-8.879,0-8.879
				C1024.956,441.313,1024.947,450.192,1030.669,450.192L1030.669,450.192z"/>
		</g>
		<g>
			<path style="fill:#EDB83F;" d="M997.368,79.284c5.713,0,5.723-8.879,0-8.879C991.654,70.405,991.645,79.284,997.368,79.284
				L997.368,79.284z"/>
		</g>
		<g>
			<path style="fill:#EDB83F;" d="M983.073,49.262c5.713,0,5.723-8.879,0-8.879C977.36,40.383,977.35,49.262,983.073,49.262
				L983.073,49.262z"/>
		</g>
	</g>
	<g>
		<g>
			<path style="fill:#DB852A;" d="M253.087,143.974c-2.928,2.024-6.681,2.813-10.176,2.139s-6.832-3.475-8.795-6.444
				c1.326,0.109,2.592-0.607,3.571-1.507c0.979-0.9,1.762-1.996,2.733-2.905c0.971-0.909,2.219-1.647,3.547-1.575
				c1.683,0.092,4.331,0.1,5.507,1.308s1.766,2.88,2.014,4.547c0.117,0.791,0.166,1.596,0.382,2.365
				C252.086,142.67,252.413,143.544,253.087,143.974z"/>
			<path style="fill:#CB6C26;" d="M251.537,139.912c-0.016-0.125-0.031-0.251-0.05-0.376c-0.247-1.667-0.838-3.34-2.014-4.547
				s-3.825-1.216-5.507-1.308c-1.328-0.072-2.576,0.666-3.547,1.575c-0.575,0.538-1.085,1.139-1.607,1.729
				C242.537,139.394,247.133,140.448,251.537,139.912z"/>
		</g>
		<g>
			<path style="fill:#EDB83F;" d="M313.382,80.854c-7.037,27.647-39.768,62.481-67.416,55.444
				c-27.648-7.037-39.742-53.28-32.705-80.928c7.037-27.648,35.155-44.356,62.802-37.319
				C303.711,25.089,320.419,53.206,313.382,80.854z"/>
			<path style="fill:#DB852A;" d="M232.591,106.064c-5.722-11.962-6.933-25.645-6.026-38.874c0.725-10.576,2.774-21.15,7.076-30.839
				c2.596-5.847,6.051-11.361,10.312-16.121c-14.703,5.961-26.477,18.586-30.691,35.141c-7.037,27.648,5.058,73.89,32.705,80.928
				c9.355,2.381,19.291-0.036,28.617-5.341c-4.171,0.446-8.35,0.414-12.496-0.388C249.068,128.051,238.313,118.026,232.591,106.064z
				"/>
			<path style="fill:#F4D775;" d="M274.317,91.027c-1.107,3.126-2.712,6.092-3.402,9.336c-0.69,3.244-0.272,6.997,2.143,9.27
				c2.335,2.198,6.017,2.451,9.039,1.377c3.022-1.074,5.507-3.259,7.778-5.524c9.275-9.251,16.458-21.134,17.849-34.16
				c1.185-11.103-2.822-29.018-14.836-33.322c-14.781-5.296-16.297,19.639-16.275,28.357
				C276.633,74.607,277.116,83.122,274.317,91.027z"/>
			<g>
				<path style="fill:#FFFFFF;" d="M274.795,55.731c0.253,2.017,1.103,4.291,3.046,4.886c1.205,0.369,2.553-0.049,3.53-0.845
					c0.977-0.796,1.628-1.924,2.116-3.086c1.231-2.933,1.53-6.249,0.843-9.355c-0.604-2.73-4.353-7.813-6.923-3.977
					C275.081,46.827,274.284,51.651,274.795,55.731z"/>
				<path style="fill:#FFFFFF;" d="M275.002,76.643c0.217,0.927,0.678,1.879,1.534,2.296c0.873,0.425,1.939,0.179,2.781-0.305
					c2.837-1.632,4.183-7.123,0.54-8.719C275.952,68.204,274.354,73.871,275.002,76.643z"/>
			</g>
		</g>
	</g>
	<g>
		<g>
			<path style="fill:#577FFF;" d="M177.209,241.377c-2.437,1.668-5.555,2.307-8.452,1.733c-2.897-0.574-5.654-2.911-7.271-5.382
				c1.099,0.096,2.153-0.493,2.969-1.236c0.816-0.743,1.47-1.649,2.279-2.4c0.809-0.75,1.848-1.358,2.949-1.293
				c1.396,0.083,3.593,0.101,4.564,1.107c0.971,1.006,1.454,2.397,1.652,3.781c0.094,0.656,0.132,1.324,0.308,1.964
				C176.384,240.292,176.651,241.018,177.209,241.377z"/>
			<path style="fill:#293398;" d="M175.94,238.001c-0.013-0.104-0.025-0.208-0.04-0.312c-0.199-1.384-0.682-2.775-1.652-3.781
				c-0.971-1.006-3.168-1.024-4.564-1.107c-1.102-0.065-2.14,0.542-2.949,1.293c-0.479,0.444-0.905,0.941-1.341,1.428
				C168.474,237.535,172.283,238.428,175.94,238.001z"/>
		</g>
		<g>
			<path style="fill:#73A8FB;" d="M227.493,189.251c-5.951,22.911-33.25,51.68-56.161,45.729
				c-22.911-5.951-32.758-44.369-26.807-67.28s29.349-36.66,52.26-30.708C219.696,142.942,233.445,166.34,227.493,189.251z"/>
			<path style="fill:#577FFF;" d="M160.357,209.839c-4.699-9.949-5.648-21.306-4.842-32.279c0.645-8.772,2.388-17.537,5.996-25.559
				c2.177-4.841,5.067-9.402,8.621-13.334c-12.224,4.886-22.044,15.314-25.608,29.032c-5.951,22.911,3.896,61.329,26.807,67.28
				c7.752,2.014,16.006,0.049,23.766-4.315c-3.463,0.353-6.929,0.309-10.366-0.373C173.939,228.15,165.057,219.788,160.357,209.839z
				"/>
			<path style="fill:#90CBFF;" d="M195.039,197.533c-0.931,2.589-2.275,5.044-2.861,7.732c-0.586,2.689-0.254,5.804,1.74,7.7
				c1.929,1.833,4.983,2.058,7.494,1.179c2.512-0.879,4.583-2.682,6.476-4.552c7.733-7.638,13.742-17.468,14.948-28.27
				c1.029-9.208-2.224-24.088-12.174-27.708c-12.242-4.454-13.601,16.229-13.619,23.462
				C197.028,183.918,197.394,190.986,195.039,197.533z"/>
			<g>
				<path style="fill:#FFFFFF;" d="M195.58,168.249c0.201,1.675,0.897,3.565,2.508,4.067c0.998,0.311,2.119-0.03,2.932-0.687
					c0.814-0.656,1.359-1.59,1.768-2.552c1.033-2.428,1.295-5.179,0.738-7.758c-0.49-2.267-3.58-6.501-5.728-3.328
					C195.853,160.862,195.172,164.862,195.58,168.249z"/>
				<path style="fill:#FFFFFF;" d="M195.667,185.601c0.176,0.77,0.555,1.562,1.263,1.911c0.723,0.356,1.608,0.156,2.309-0.242
					c2.361-1.343,3.5-5.894,0.483-7.232C196.489,178.602,195.14,183.298,195.667,185.601z"/>
			</g>
		</g>
	</g>
	<g>
		<g>
			<path style="fill:#577FFF;" d="M1265.68,421.178c-1.124,3.69-3.782,6.886-7.204,8.665s-8.141,1.645-11.807,0.445
				c1.2-0.799,1.793-2.26,2.019-3.684c0.226-1.424,0.153-2.881,0.366-4.307c0.213-1.426,0.776-2.893,1.953-3.725
				c1.491-1.055,3.747-2.83,5.558-2.595c1.811,0.234,3.439,1.258,4.771,2.507c0.632,0.593,1.215,1.243,1.916,1.751
				C1263.953,420.745,1264.819,421.267,1265.68,421.178z"/>
			<path style="fill:#293398;" d="M1261.63,418.771c-0.098-0.096-0.196-0.192-0.295-0.286c-1.332-1.249-2.959-2.273-4.771-2.507
				c-1.811-0.234-4.067,1.541-5.558,2.596c-1.177,0.832-1.74,2.299-1.953,3.725c-0.126,0.844-0.155,1.698-0.202,2.55
				C1253.637,424.388,1258.25,422.19,1261.63,418.771z"/>
		</g>
		<g>
			<path style="fill:#73A8FB;" d="M1274.417,326.987c12.629,28.22,8.269,79.834-19.951,92.463
				c-28.219,12.629-69.613-18.511-82.241-46.73c-12.629-28.22,0.01-61.334,28.23-73.962
				C1228.674,286.129,1261.788,298.768,1274.417,326.987z"/>
			<path style="fill:#577FFF;" d="M1222.759,402.771c-12.911-6.31-23.147-17.117-31.28-28.964
				c-6.501-9.471-11.877-19.832-14.744-30.956c-1.73-6.713-2.505-13.723-2.09-20.633c-8.477,14.958-9.982,33.606-2.42,50.503
				c12.629,28.22,54.022,59.359,82.241,46.73c9.548-4.273,16.361-13.012,20.713-23.795c-3.243,3.185-6.814,5.97-10.875,8.08
				C1251.551,410.358,1235.669,409.08,1222.759,402.771z"/>
			<path style="fill:#90CBFF;" d="M1248.082,361.918c1.164,3.4,1.796,7,3.393,10.22c1.597,3.22,4.478,6.126,8.058,6.432
				c3.463,0.296,6.761-1.967,8.604-4.913c1.844-2.946,2.485-6.475,2.889-9.926c1.652-14.1-0.243-29.027-7.828-41.027
				c-6.465-10.229-21.925-22.748-35.026-18.319c-16.118,5.449-0.626,27.649,5.259,35.038
				C1238.999,346.412,1245.14,353.32,1248.082,361.918z"/>
			<g>
				<path style="fill:#FFFFFF;" d="M1224.735,331.616c1.572,1.543,3.824,2.902,5.876,2.1c1.272-0.497,2.136-1.76,2.43-3.093
					c0.294-1.333,0.088-2.73-0.28-4.045c-0.928-3.32-2.906-6.338-5.579-8.513c-2.35-1.912-8.956-3.707-8.557,1.281
					C1218.985,323.86,1221.555,328.495,1224.735,331.616z"/>
				<path style="fill:#FFFFFF;" d="M1238.984,349.239c0.808,0.642,1.84,1.14,2.848,0.918c1.028-0.226,1.768-1.153,2.157-2.131
					c1.311-3.296-1.24-8.866-5.409-7.769C1234.111,341.432,1236.568,347.321,1238.984,349.239z"/>
			</g>
		</g>
	</g>
	<g>
		<g>
			<path style="fill:#DB852A;" d="M1347.603,447.017c-1.442,3.285-4.246,5.947-7.601,7.216c-3.356,1.269-7.7,0.63-10.955-0.879
				c1.195-0.607,1.903-1.891,2.268-3.182c0.364-1.29,0.456-2.645,0.809-3.938c0.352-1.293,1.033-2.587,2.211-3.227
				c1.492-0.811,3.77-2.204,5.417-1.79c1.648,0.414,3.039,1.538,4.133,2.837c0.519,0.616,0.986,1.281,1.579,1.827
				C1346.055,446.427,1346.798,447.005,1347.603,447.017z"/>
			<path style="fill:#CB6C26;" d="M1344.126,444.351c-0.08-0.099-0.16-0.199-0.242-0.296c-1.094-1.3-2.485-2.423-4.133-2.837
				c-1.648-0.414-3.925,0.979-5.417,1.79c-1.178,0.64-1.859,1.934-2.211,3.227c-0.208,0.766-0.329,1.551-0.465,2.334
				C1336.129,448.665,1340.63,447.14,1344.126,444.351z"/>
		</g>
		<g>
			<path style="fill:#EDB83F;" d="M1365.965,360.969c8.581,27.446-1.085,74.645-28.531,83.226
				c-27.446,8.581-62.278-24.704-70.859-52.15c-8.581-27.446,6.711-56.652,34.157-65.233
				C1328.178,318.23,1357.384,333.523,1365.965,360.969z"/>
			<path style="fill:#DB852A;" d="M1309.969,425.324c-11.236-7.239-19.51-18.34-25.728-30.172
				c-4.97-9.459-8.803-19.616-10.236-30.205c-0.865-6.39-0.815-12.949,0.324-19.286c-9.464,12.89-12.892,29.95-7.754,46.384
				c8.582,27.446,43.413,60.732,70.859,52.15c9.286-2.904,16.535-10.231,21.732-19.716c-3.344,2.588-6.946,4.77-10.928,6.275
				C1335.735,435.479,1321.204,432.563,1309.969,425.324z"/>
			<path style="fill:#F4D775;" d="M1337.823,390.357c0.703,3.268,0.894,6.662,2.017,9.811c1.123,3.148,3.466,6.148,6.741,6.821
				c3.166,0.651,6.46-1.079,8.485-3.598c2.025-2.52,3.002-5.709,3.753-8.853c3.066-12.843,2.947-26.838-2.747-38.751
				c-4.854-10.155-17.766-23.408-30.352-20.749c-15.484,3.272-3.599,25.47,1.03,32.939
				C1331.128,375.041,1336.045,382.093,1337.823,390.357z"/>
			<g>
				<path style="fill:#FFFFFF;" d="M1319.569,359.815c1.284,1.597,3.215,3.099,5.198,2.582c1.229-0.32,2.165-1.392,2.582-2.592
					c0.417-1.2,0.38-2.512,0.184-3.767c-0.495-3.168-1.992-6.172-4.224-8.473c-1.962-2.023-7.867-4.403-8.044,0.249
					C1315.105,352.023,1316.973,356.585,1319.569,359.815z"/>
				<path style="fill:#FFFFFF;" d="M1330.805,377.65c0.676,0.681,1.575,1.254,2.53,1.159c0.974-0.097,1.759-0.872,2.225-1.733
					c1.571-2.901-0.177-8.325-4.147-7.767C1327.157,369.907,1328.783,375.615,1330.805,377.65z"/>
			</g>
		</g>
	</g>
	<g>
		<defs>
			<rect id="SVGID_1_" width="1500" height="500"/>
		</defs>
		<clipPath id="SVGID_00000128477839299927316680000000910555752380110247_">
			<use xlink:href="#SVGID_1_"  style="overflow:visible;"/>
		</clipPath>
		<g style="clip-path:url(#SVGID_00000128477839299927316680000000910555752380110247_);">
			<g>
				<path style="fill:#84193E;" d="M185.977,79.134c-2.788,1.928-6.364,2.68-9.693,2.037c-3.329-0.643-6.507-3.31-8.377-6.138
					c1.263,0.104,2.469-0.578,3.402-1.435c0.933-0.857,1.678-1.901,2.603-2.767c0.925-0.866,2.113-1.569,3.379-1.5
					c1.603,0.087,4.126,0.096,5.246,1.245c1.12,1.15,1.682,2.743,1.918,4.331c0.112,0.753,0.158,1.52,0.364,2.253
					C185.024,77.892,185.335,78.725,185.977,79.134z"/>
				<path style="fill:#5A1B3C;" d="M184.501,75.265c-0.015-0.119-0.03-0.239-0.048-0.358c-0.236-1.588-0.798-3.181-1.918-4.331
					c-1.12-1.15-3.643-1.158-5.246-1.245c-1.265-0.069-2.454,0.634-3.379,1.5c-0.547,0.512-1.034,1.085-1.531,1.647
					C175.928,74.771,180.306,75.775,184.501,75.265z"/>
			</g>
			<g>
				<path style="fill:#C72440;" d="M243.407,19.013c-6.703,26.334-37.878,59.512-64.212,52.809
					c-26.334-6.703-37.854-50.748-31.151-77.082c6.703-26.334,33.484-42.248,59.818-35.545
					C234.195-34.103,250.109-7.321,243.407,19.013z"/>
				<path style="fill:#84193E;" d="M166.455,43.025c-5.45-11.394-6.604-24.427-5.74-37.027c0.691-10.073,2.642-20.145,6.739-29.374
					c2.472-5.569,5.764-10.821,9.822-15.355c-14.004,5.678-25.219,17.703-29.233,33.471c-6.703,26.334,4.817,70.379,31.151,77.082
					c8.91,2.268,18.374-0.034,27.257-5.087c-3.973,0.424-7.953,0.394-11.902-0.37C182.149,63.968,171.905,54.419,166.455,43.025z"/>
				<path style="fill:#E26647;" d="M206.198,28.703c-1.054,2.978-2.583,5.803-3.241,8.892c-0.657,3.09-0.259,6.664,2.041,8.829
					c2.224,2.094,5.731,2.335,8.61,1.312c2.878-1.023,5.246-3.104,7.408-5.262c8.834-8.812,15.676-20.129,17.001-32.536
					c1.129-10.576-2.688-27.639-14.131-31.739c-14.078-5.044-15.522,18.706-15.501,27.009
					C208.405,13.063,208.864,21.174,206.198,28.703z"/>
				<g>
					<path style="fill:#EFBBBF;" d="M206.654-4.916c0.241,1.921,1.05,4.087,2.902,4.654c1.147,0.352,2.432-0.046,3.362-0.805
						c0.93-0.758,1.551-1.833,2.016-2.939c1.173-2.793,1.457-5.952,0.803-8.91c-0.575-2.6-4.146-7.442-6.594-3.788
						C206.926-13.397,206.167-8.802,206.654-4.916z"/>
					<path style="fill:#EFBBBF;" d="M206.851,15.002c0.206,0.883,0.646,1.79,1.461,2.187c0.832,0.405,1.847,0.17,2.649-0.291
						c2.702-1.555,3.985-6.785,0.514-8.305C207.756,6.964,206.234,12.362,206.851,15.002z"/>
				</g>
			</g>
		</g>
		<g style="clip-path:url(#SVGID_00000128477839299927316680000000910555752380110247_);">
			<g>
				<path style="fill:#84193E;" d="M1176.988,536.639c-1.137,3.437-3.702,6.378-6.953,7.971c-3.251,1.593-7.677,1.363-11.09,0.155
					c1.143-0.723,1.733-2.081,1.977-3.411c0.244-1.331,0.208-2.7,0.439-4.033c0.231-1.333,0.793-2.697,1.916-3.452
					c1.423-0.957,3.579-2.572,5.273-2.312s3.199,1.257,4.421,2.459c0.58,0.57,1.113,1.194,1.759,1.686
					C1175.377,536.193,1176.178,536.703,1176.988,536.639z"/>
				<path style="fill:#5A1B3C;" d="M1173.241,534.289c-0.09-0.092-0.179-0.185-0.271-0.275c-1.222-1.202-2.726-2.199-4.421-2.459
					s-3.851,1.355-5.273,2.312c-1.123,0.755-1.684,2.119-1.916,3.452c-0.137,0.789-0.183,1.59-0.246,2.389
					C1165.616,539.382,1169.994,537.423,1173.241,534.289z"/>
			</g>
			<g>
				<path style="fill:#C72440;" d="M1187.282,448.446c11.223,26.761,5.983,75.098-20.778,86.321
					c-26.761,11.223-64.911-18.918-76.134-45.68c-11.223-26.762,1.374-57.554,28.136-68.777
					C1145.267,409.088,1176.059,421.685,1187.282,448.446z"/>
				<path style="fill:#84193E;" d="M1137.121,518.41c-11.975-6.208-21.34-16.577-28.708-27.875
					c-5.89-9.032-10.704-18.874-13.147-29.377c-1.474-6.338-2.046-12.933-1.502-19.408c-8.287,13.848-10.114,31.313-3.395,47.337
					c11.223,26.762,49.372,56.903,76.134,45.68c9.055-3.797,15.643-11.846,19.966-21.868c-3.114,2.917-6.527,5.451-10.385,7.34
					C1163.97,526.171,1149.096,524.618,1137.121,518.41z"/>
				<path style="fill:#E26647;" d="M1161.792,480.639c1.016,3.217,1.53,6.609,2.957,9.665c1.427,3.057,4.065,5.848,7.419,6.215
					c3.243,0.354,6.388-1.696,8.184-4.419c1.796-2.723,2.475-6.02,2.932-9.25c1.864-13.194,0.418-27.243-6.433-38.673
					c-5.839-9.742-20.068-21.834-32.46-17.97c-15.246,4.755-1.202,25.931,4.156,32.996
					C1153.614,465.886,1159.223,472.505,1161.792,480.639z"/>
				<g>
					<path style="fill:#EFBBBF;" d="M1140.558,451.684c1.441,1.483,3.524,2.809,5.467,2.102c1.204-0.438,2.043-1.604,2.349-2.849
						c0.305-1.245,0.143-2.56-0.172-3.802c-0.797-3.136-2.586-6.012-5.047-8.113c-2.163-1.847-8.321-3.678-8.058,1.012
						C1135.335,444.279,1137.644,448.685,1140.558,451.684z"/>
					<path style="fill:#EFBBBF;" d="M1153.537,468.538c0.744,0.62,1.702,1.111,2.652,0.924c0.969-0.19,1.684-1.043,2.071-1.952
						c1.304-3.063-0.967-8.347-4.903-7.411C1149.138,461.104,1151.313,466.685,1153.537,468.538z"/>
				</g>
			</g>
		</g>
		<g style="clip-path:url(#SVGID_00000128477839299927316680000000910555752380110247_);">
			<path style="fill:#8A88B2;" d="M-1.863,447.407c7.12,1.894,15.924,1.839,24.791-0.153c10.905-2.451,19.866-7.343,25.193-13.127
				l0,0.001l7.492-7.376c4.605-4.533,10.837-7.029,17.298-6.926l11.624,0.184l90.682-25.271
				c12.082-3.367,22.216-11.614,27.967-22.759L85.092,400.955l-24.85,7.665c-1.219,0.376-2.311,1.081-3.156,2.037l0,0
				c-2.375,2.686-6.454,3.193-9.297,1.008c-2.341-1.8-5.362-3.219-8.975-4.18c-7.119-1.895-15.924-1.84-24.791,0.153
				c-8.868,1.993-16.848,5.711-22.472,10.47c-6.277,5.311-9.023,11.394-7.734,17.127c0.544,2.424,1.767,4.596,3.597,6.455
				C-10.085,444.23-6.451,446.187-1.863,447.407z M-9.008,433.622c-0.65-2.888,1.286-6.497,5.309-9.902
				c4.736-4.006,11.602-7.17,19.334-8.908c7.733-1.738,15.292-1.817,21.288-0.222c3.262,0.868,5.785,2.178,7.349,3.767
				c0.878,0.892,1.454,1.872,1.688,2.91c1.342,5.977-8.448,15.172-24.645,18.811c-7.733,1.738-15.292,1.817-21.288,0.222
				C-5.065,438.946-8.358,436.51-9.008,433.622z"/>
			<g>
				<g>
					<path style="fill:none;" d="M61.991,319.226C62.191,319.795,62.233,319.887,61.991,319.226L61.991,319.226z"/>
					<path style="fill:#8C1440;" d="M58.063,295.671c0.153-5.686,1.1-11.337,2.862-16.785c5.17-15.984,16.242-29.176,26.63-42.036
						c10.226-12.658,21.427-25.998,25.36-42.18c2.339-9.625-1.567-30.924-4.902-38.949c-3.771-9.883-8.549-19.47-12.163-28.4
						c-1.053-2.601-2.141-5.088-3.26-7.517c0.624,8.521,0.63,18.205-0.385,22.555c-3.563,14.946-13.55,28.405-23.546,40.818
						c-16.043,19.923-33.483,40.903-30.896,68.183c0.328,3.463,0.954,6.904,1.779,10.322
						C44.586,273.928,52.629,291.797,58.063,295.671z"/>
					<path style="fill:#C82441;" d="M427.908,385.545c-7.908-15.605-18.693-29.717-31.699-41.422
						c-29.405-26.462-66.638-36.203-105.641-33.87c-72.261,4.322-176.499,51.693-232.506-14.583
						c-5.434-3.873-13.477-21.742-18.522-33.988c3.227,13.38,9.646,26.385,14.607,38.816c6.098,15.281,11.546,30.753,22.028,43.666
						c19.279,23.75,47.54,35.171,77.526,37.578c68.252,5.478,134.392-31.304,202.576-17.091c26.004,5.42,49.677,19.294,67.997,38.42
						c5.921,6.181,11.289,12.914,16.011,20.067c-0.938-5.353-2.229-12.104-3.58-18.948
						C433.908,397.856,430.985,391.616,427.908,385.545z M61.991,319.226C62.233,319.887,62.191,319.795,61.991,319.226
						L61.991,319.226z"/>
					<path style="fill:#C82441;" d="M92.59,119.804c-0.259-0.562-0.509-1.142-0.773-1.696c-0.15-0.423-0.3-0.845-0.451-1.268
						c0.083,0.265,0.149,0.527,0.227,0.791c-6.912-14.387-15.627-25.724-30.94-34.138C41.029,72.711,18.774,70.884-3.183,69.768
						c-22.71-1.154-46.274-1.44-67.37-10.964c-8.756-3.953-17.018-9.245-23.853-16.03c-1.603-1.591-3.026-3.246-4.38-4.955
						c-0.271-0.683-0.535-1.369-0.806-2.052c-2.42-6.086-4.852-12.169-7.336-18.23c-0.862-2.102-3.017-5.31-3.19-7.491
						c1.283,16.161,9.897,32.107,15.797,46.824c4.547,11.343,8.405,23.541,16.332,33.085c14.155,17.044,35.926,25.539,57.327,28.61
						c27.5,3.947,56.23,0.838,83.115,8.794c9.711,2.874,19.04,7.255,27.289,13.149c0.835,0.597,1.652,1.22,2.464,1.851
						C93.22,138.009,93.214,128.325,92.59,119.804z"/>
					<path style="fill:#6C0F3C;" d="M456.249,456.049c-5.563-17.294-12.067-34.938-19.543-51.86
						c1.351,6.844,2.642,13.595,3.58,18.948c0.613,3.706,1.079,7.436,1.35,11.184c4.314,59.608-36.179,117.533-92.462,136.16
						c0.647-0.214,19.1,52.121,20.536,51.646C436.907,599.888,478.129,524.072,456.249,456.049z"/>
				</g>
				<g>
					<path style="fill:#E26747;" d="M61.991,319.226C62.191,319.795,62.233,319.887,61.991,319.226L61.991,319.226z"/>
					<path style="fill:#6C0F3C;" d="M58.063,295.671c0.153-5.686,1.1-11.337,2.862-16.785c0.252-0.78,0.53-1.548,0.81-2.316
						c-9.884-12.199-17.786-25.998-23.313-40.694c-0.89,4.944-1.172,10.09-0.66,15.485c0.328,3.463,0.954,6.904,1.779,10.322
						C44.586,273.928,52.629,291.797,58.063,295.671z"/>
					<path style="fill:#8C1440;" d="M58.063,295.671c-5.434-3.873-13.477-21.742-18.522-33.988
						c3.227,13.38,9.646,26.385,14.607,38.816c6.098,15.281,11.546,30.753,22.028,43.666c6.72,8.278,14.549,15.026,23.144,20.449
						c-9.123-15.066-15.39-31.859-18.328-49.222C72.709,310.367,65.014,303.896,58.063,295.671z M61.991,319.226
						C62.233,319.887,62.191,319.795,61.991,319.226L61.991,319.226z"/>
					<path style="fill:#8C1440;" d="M349.967,317.384c7.401,15.736,12.674,32.469,15.633,49.604
						c6.626,1.935,13.066,4.422,19.272,7.398c-3.175-17.632-9.385-34.711-18.261-50.274
						C361.211,321.47,355.646,319.26,349.967,317.384z"/>
					<path style="fill:#8C1440;" d="M427.908,385.545c-7.908-15.605-18.693-29.717-31.699-41.422
						c-2.314-2.083-4.694-4.025-7.102-5.903c8.449,15.289,14.344,31.984,17.355,49.189c6.36,4.697,12.33,9.938,17.813,15.662
						c5.921,6.181,11.289,12.914,16.011,20.067c-0.938-5.353-2.229-12.104-3.58-18.948
						C433.908,397.856,430.985,391.616,427.908,385.545z"/>
					<path style="fill:#6C0F3C;" d="M92.59,119.804c-0.259-0.562-0.509-1.142-0.773-1.696c-0.15-0.423-0.3-0.845-0.451-1.268
						c0.083,0.265,0.149,0.527,0.227,0.791c-5.215-10.856-11.462-19.972-20.79-27.41c5.074,13.982,7.801,28.812,8.034,43.685
						c3.787,1.94,7.444,4.129,10.903,6.601c0.835,0.597,1.652,1.22,2.464,1.851C93.22,138.009,93.214,128.325,92.59,119.804z"/>
					<path style="fill:#E26747;" d="M-2.853,81.809c-0.093-1.825-0.257-3.822-1.528-5.137c-1.411-1.46-3.676-1.566-5.706-1.577
						c-4.05-0.022-8.101-0.044-12.151-0.066c-2.33-0.013-6.515-0.935-7.997,1.47c-1.433,2.325-0.332,7.335-0.291,9.945
						c0.061,3.905,0.129,7.809,0.184,11.714c0.046,2.96,0.141,6.089,1.717,8.595c2.548,4.049,7.917,5.035,12.662,5.642
						c4.39,0.561,9.633,0.799,12.379-2.672c1.923-2.43,1.856-5.829,1.699-8.924C-2.208,94.469-2.531,88.139-2.853,81.809z"/>
					<path style="fill:#E26747;" d="M20.08,91.287c-2.061-1.817-4.976-2.209-7.706-2.522c-3.184-0.365-6.224,0-6.622,3.546
						c-0.33,2.938-0.5,6.508-0.453,9.525c0.048,3.078,0.784,6.229,2.622,8.698c1.132,1.522,2.68,2.755,4.466,3.394
						c4.099,1.468,9.155-0.759,10.837-4.775c1.21-2.888,0.766-6.169,0.302-9.265C23.058,96.767,22.448,93.375,20.08,91.287z"/>
					<path style="fill:#C82441;" d="M76.553,206.151c2.153,3.739,4.306,7.477,6.459,11.216c1.111,1.93,2.541,4.078,4.756,4.317
						c2.383,0.257,4.301-1.824,5.782-3.709c3.299-4.198,6.763-8.867,6.646-14.205c-0.079-3.637-1.835-6.999-3.548-10.208
						c-2.083-3.9-4.165-7.801-6.248-11.702c-1.547-2.897-2.874-7.018-6.891-6.17c-6.541,1.38-11.813,11.538-11.706,17.632
						C71.885,197.933,74.252,202.154,76.553,206.151z"/>
					<path style="fill:#C82441;" d="M67.574,241.825c1.773,0.206,3.335-1.079,4.656-2.28c2.212-2.012,4.485-4.106,5.711-6.833
						c3.309-7.361-2.465-19.923-10.253-22.322c-3.862-1.19-8.187,1.505-10.296,4.67c-2.743,4.115-0.924,8.634,1.052,12.638
						c1.63,3.303,3.259,6.605,4.889,9.907C64.256,239.474,65.503,241.584,67.574,241.825z"/>
					<path style="fill:#E26747;" d="M156.638,349.144c-0.58-4.119-1.451-8.726-4.892-11.062c-2.453-1.665-5.618-1.727-8.583-1.731
						c-6.124-0.007-12.248-0.023-18.372-0.022c-4.36,0-7.866,0.133-8.194,5.243c-0.546,8.512,4.682,20.067,10.793,25.786
						c2.62,2.452,5.764,4.301,9.082,5.668c5.003,2.062,10.445,3.05,15.853,2.88c2.32-0.073,4.924-0.521,6.247-2.428
						c1.173-1.69,0.935-3.949,0.648-5.986C158.359,361.376,157.499,355.26,156.638,349.144z"/>
					<path style="fill:#E26747;" d="M183.406,346.194c-0.488-2.936-1.086-6.088-3.234-8.146c-3.611-3.458-14.518-3.758-14.462,2.67
						c0.075,8.762,2.031,17.912,3.018,26.626c0.284,2.507,0.642,5.186,2.317,7.072c2.349,2.645,6.753,2.726,9.694,0.762
						c2.942-1.964,4.533-5.497,4.964-9.008c0.431-3.511-0.151-7.058-0.73-10.547C184.451,352.48,183.929,349.337,183.406,346.194z"
						/>
				</g>
			</g>
			<g>
				<path style="fill:#9B9BCE;" d="M99.702,493.382c3.457-9.791,0.675-20.041-6.183-25.013c-0.076-0.055-0.168-0.115-0.274-0.177
					c-4.022-2.387-6.383-6.761-5.909-11.413c0.936-9.183,0.761-22.412-2.897-32.345l55.687-126.559
					c-23.631,22.057-42.214,48.963-54.473,78.873l-17.382,42.41c9.186,17.541,10.826,38.05,1.493,52.973l0.024-0.009
					c-2.243,2.421-4.094,5.397-5.303,8.824c-4.073,11.534,0.513,23.706,10.224,27.135C84.417,511.51,95.63,504.916,99.702,493.382z
					 M71.418,483.395c2.723-7.71,9.727-12.292,15.613-10.213c5.886,2.078,8.46,10.042,5.738,17.753
					c-2.723,7.71-9.727,12.292-15.613,10.214C71.269,499.069,68.695,491.105,71.418,483.395z"/>
				<path style="fill:#C1BFE9;" d="M79.689,400.011c3.558,3.569,8.589,5.187,13.541,4.444l46.896-106.58
					C101.284,335.174,79.689,400.011,79.689,400.011z"/>
				<path style="fill:#68689E;" d="M82.916,413.851c-0.747,2.114-3.066,3.223-5.18,2.476c-2.114-0.747-3.223-3.066-2.476-5.18
					c0.747-2.114,3.066-3.223,5.18-2.476C82.554,409.418,83.663,411.737,82.916,413.851z"/>
				<path style="fill:#C1BFE9;" d="M84.174,413.536c-0.747,2.114-3.066,3.223-5.18,2.476c-2.114-0.747-3.223-3.066-2.476-5.18
					c0.746-2.114,3.066-3.223,5.18-2.476C83.812,409.103,84.921,411.422,84.174,413.536z"/>
			</g>
		</g>
		<g style="clip-path:url(#SVGID_00000128477839299927316680000000910555752380110247_);">
			<path style="fill:#8A88B2;" d="M1503.218,2.479c-7.335-0.686-16.008,0.829-24.421,4.265
				c-10.347,4.227-18.372,10.538-22.665,17.126v-0.001l-6.164,8.517c-3.789,5.235-9.52,8.73-15.909,9.701l-11.494,1.747
				l-85.231,39.97c-11.355,5.326-19.98,15.14-23.802,27.085l111.646-48.171l23.233-11.683c1.14-0.573,2.1-1.449,2.775-2.532l0,0
				c1.896-3.043,5.835-4.22,9-2.537c2.608,1.387,5.822,2.284,9.544,2.633c7.335,0.687,16.009-0.829,24.422-4.265
				c8.414-3.437,15.667-8.428,20.423-14.054c5.308-6.279,7.007-12.733,4.784-18.173c-0.939-2.3-2.505-4.239-4.619-5.769
				C1511.854,4.248,1507.944,2.921,1503.218,2.479z M1512.552,14.887c1.12,2.74-0.19,6.621-3.592,10.646
				c-4.005,4.737-10.252,8.996-17.588,11.993c-7.337,2.998-14.778,4.33-20.956,3.752c-3.361-0.315-6.067-1.188-7.872-2.495
				c-1.014-0.734-1.744-1.605-2.147-2.59c-2.316-5.671,5.813-16.363,21.181-22.641c7.337-2.997,14.779-4.329,20.955-3.752
				C1507.78,10.291,1511.432,12.147,1512.552,14.887z"/>
			<g>
				<g>
					<path style="fill:#C82441;" d="M1334.817,51.785c-35.753-15.74-75.415-0.763-111.529,5.626
						c-25.086,4.438-54.944,5.202-77.208-8.552c0.417,3.492,0.921,6.965,1.483,10.38c13.392,20.729,27.756,40.663,34.44,43.805
						c32.501,15.277,69.48,5.343,102.663-1.656c29.114-6.14,61.2-10.06,87.303,5.019c3.38,1.658,9.003,6.628,14.981,12.494
						C1370.497,93.243,1344.104,55.873,1334.817,51.785z"/>
					<path style="fill:#8C1440;" d="M1146.292,33.709c1.715-16.945,8.02-33.42,18.181-47.095
						c23.508-31.636,61.337-48.275,97.098-61.875c-2.516,0.957-25.954-51.936-29.278-50.672
						c-31.787,12.088-64.437,26.268-88.231,51.399c-20.82,21.99-32.399,53.536-25.644,83.722
						c0.729,3.257,14.342,27.14,29.145,50.051c-0.561-3.415-1.065-6.888-1.483-10.38
						C1145.699,43.815,1145.784,38.731,1146.292,33.709z"/>
					<path style="fill:#8C1440;" d="M1365.433,217.059c14.894-22.269,41.514-44.48,35.331-74.35
						c-0.431-2.083-6.009-11.633-13.816-23.808c-5.978-5.866-11.601-10.836-14.981-12.494c-0.238,1.87-0.583,3.729-1.045,5.566
						c-3.443,13.679-12.412,25.159-20.949,36.053c-17.924,22.873-34.639,47.099-20.39,76.658
						c6.02,12.486,13.552,24.384,20.512,36.35c4.085,7.024,7.986,14.361,12.596,21.142c-4.492-11.03-8.599-22.672-9.55-30.336
						C1353.192,239.217,1358.411,227.559,1365.433,217.059z"/>
					<path style="fill:#C82441;" d="M1596.137,377.721c-11.514-21.557-23.097-44.723-38.294-63.983
						c-22.536-28.561-56.108-38.036-91.107-40.277c-36.835-2.359-78.204,1.495-110.666-19.56c-1-0.649-1.957-1.365-2.928-2.059
						c0.951,7.663,5.058,19.306,9.55,30.336c1.6,2.353,3.282,4.641,5.091,6.823c10.982,13.245,26.017,21.768,42.348,26.662
						c40.952,12.273,84.892,2.759,125.896,14.7c15.486,4.51,29.485,12.34,41.132,23.264c1.341,5.861,2.14,11.825,2.457,17.88
						c0.087,1.659,3.694,6.788,4.109,7.524c3.386,6.008,6.827,11.987,10.277,17.958c3.451,5.972,6.912,11.938,10.426,17.872
						c1.006,1.7,4.372,5.509,4.467,7.317C1608.067,406.375,1603.573,391.643,1596.137,377.721z"/>
				</g>
				<g>
					<path style="fill:#8C1440;" d="M1146.08,48.859c0.417,3.492,0.921,6.965,1.483,10.38c13.392,20.729,27.756,40.663,34.44,43.805
						c8.921,4.193,18.181,6.479,27.605,7.455c-13.755-16.214-26.129-33.593-36.922-51.913
						C1163.215,56.899,1154.146,53.842,1146.08,48.859z"/>
					<path style="fill:#6C0F3C;" d="M1146.292,33.709c0.194-1.921,0.456-3.835,0.767-5.741
						c-11.398-15.452-21.287-32.006-29.566-49.331c-1.538,10.06-1.35,20.382,0.925,30.551c0.729,3.257,14.342,27.139,29.145,50.051
						c-0.561-3.415-1.066-6.888-1.483-10.38C1145.699,43.815,1145.784,38.731,1146.292,33.709z"/>
					<path style="fill:#6C0F3C;" d="M1400.765,142.709c-0.431-2.083-6.009-11.633-13.816-23.808
						c-5.978-5.866-11.601-10.836-14.981-12.494c-0.238,1.869-0.582,3.729-1.045,5.566c-1.464,5.816-3.932,11.231-6.936,16.376
						c12.297,13.533,23.305,28.234,32.84,43.836C1400.976,163.104,1402.977,153.399,1400.765,142.709z"/>
					<path style="fill:#6C0F3C;" d="M1388.457,186.533c-11.155-14.995-22.31-29.99-33.465-44.985
						c-1.66,2.19-3.346,4.346-5.018,6.479c-1.089,1.39-2.174,2.785-3.247,4.186c11.247,15.012,22.494,30.023,33.741,45.035
						C1383.217,193.738,1385.931,190.175,1388.457,186.533z"/>
					<path style="fill:#6C0F3C;" d="M1354.43,241.06c-10.587-16.101-20.23-32.82-28.872-50.044
						c-2.442,10.52-1.766,21.654,4.026,33.669c6.02,12.486,13.553,24.384,20.512,36.35c4.085,7.024,7.986,14.361,12.596,21.142
						c-4.492-11.029-8.599-22.672-9.55-30.335C1353.157,248.163,1353.621,244.569,1354.43,241.06z"/>
					<path style="fill:#8C1440;" d="M1356.071,253.9c-1-0.649-1.957-1.365-2.928-2.059c0.951,7.663,5.058,19.306,9.55,30.335
						c1.6,2.353,3.282,4.641,5.091,6.823c7.941,9.577,18.007,16.674,29.143,21.727c-12.61-14.251-22.042-31.318-27.28-49.609
						C1364.984,259.109,1360.444,256.737,1356.071,253.9z"/>
					<path style="fill:#E26747;" d="M1328.52,59.748c-1.091-2.117-2.964-3.718-5.235-4.436c-4.853-1.534-9.861-2.574-14.923-3.107
						c-7.016-0.738-12.027,6.649-8.713,12.877c3.342,6.28,6.689,12.669,10.024,18.803c1.705,3.137,5.135,4.956,8.681,4.534
						c3.468-0.413,7.002-0.612,10.535-0.606c6.767,0.012,11.111-7.152,7.817-13.063C1333.928,69.767,1331.122,64.796,1328.52,59.748
						z"/>
					<path style="fill:#E26747;" d="M1293.903,68.513c-2.033-3.413-3.931-7.322-7.046-9.909c-2.468-2.05-5.293-2.612-8.174-1.029
						c-4.122,2.266-3.774,5.862-2.114,9.697c2.344,5.412,4.687,10.825,7.031,16.237c1.114,2.572,2.369,5.311,4.78,6.741
						c2.549,1.512,5.742,1.185,8.682,0.809c2.061-0.264,4.378-0.678,5.537-2.403c1.535-2.285,0.127-5.33-1.282-7.695
						C1298.846,76.812,1296.375,72.662,1293.903,68.513z"/>
					<path style="fill:#E26747;" d="M1492.613,299.953c-0.96-4.171-1.984-8.484-4.586-11.882c-2.875-3.755-7.405-5.964-12.032-6.945
						c-4.415-0.936-14.12-3.162-13.528,3.04c0.532,5.566,6.193,13.329,8.572,18.453c1.344,2.896,2.74,5.865,5.05,8.069
						c2.327,2.22,5.244,3.397,8.396,3.98c5.684,1.05,10.557-4.157,9.261-9.79L1492.613,299.953z"/>
					<path style="fill:#E26747;" d="M1451.08,280.309c-2.546-2.237-5.892-2.402-8.741-0.366c-4.036,2.884-2.221,7.717-0.36,11.37
						c2.801,5.497,5.601,10.994,8.402,16.491c1.201,2.356,2.454,4.78,4.487,6.471c2.033,1.691,5.07,2.469,7.36,1.147
						c1.823-1.052,2.791-3.21,2.918-5.31c0.128-2.101-0.46-4.175-1.114-6.176C1461.464,296.072,1457.472,285.926,1451.08,280.309z"
						/>
				</g>
			</g>
			<g>
				<path style="fill:#9B9BCE;" d="M1395.431-26.003c-1.784,10.229,2.66,19.875,10.249,23.64c0.084,0.042,0.185,0.085,0.3,0.13
					c4.362,1.686,7.417,5.608,7.721,10.274c0.601,9.21,2.969,22.228,8.225,31.415l-33.911,134.046
					c19.643-25.673,33.502-55.29,40.628-86.82l10.103-44.707c-11.97-15.773-16.991-35.726-10.264-51.991l-0.022,0.012
					c1.81-2.76,3.141-6.002,3.766-9.581c2.102-12.05-4.441-23.293-14.585-25.062C1407.496-46.416,1397.533-38.053,1395.431-26.003z
					 M1424.981-20.848c-1.405,8.055-7.552,13.736-13.702,12.663c-6.149-1.073-10.01-8.499-8.604-16.554
					c1.405-8.055,7.552-13.736,13.701-12.663C1422.526-36.329,1426.386-28.903,1424.981-20.848z"/>
				<path style="fill:#C1BFE9;" d="M1430.663,62.753c-4.1-2.929-9.33-3.689-14.09-2.135l-28.557,112.885
					C1420.127,130.274,1430.663,62.753,1430.663,62.753z"/>
				<path style="fill:#68689E;" d="M1425.183,49.64c0.385-2.209,2.488-3.687,4.697-3.302c2.209,0.385,3.687,2.488,3.302,4.697
					c-0.385,2.209-2.488,3.687-4.697,3.302C1426.276,53.952,1424.798,51.849,1425.183,49.64z"/>
				<path style="fill:#C1BFE9;" d="M1423.995,50.159c0.385-2.209,2.488-3.687,4.697-3.302c2.209,0.385,3.687,2.488,3.302,4.697
					c-0.385,2.209-2.488,3.687-4.697,3.302C1425.088,54.471,1423.61,52.368,1423.995,50.159z"/>
			</g>
		</g>
	</g>
</g>
<g id="TEXTS">
	<g>
		<g>
			<path style="fill:#EDB841;" d="M558.232,247.273l22.415,25.828l-4.305,39.135c17.095-4.097,35.808-7.823,55.749-11.085
				l-11.497-67.184C597.914,237.845,576.943,242.335,558.232,247.273z"/>
			<path style="fill:#DC832C;" d="M620.595,233.966c-13.46,2.302-26.3,4.824-38.441,7.522l13.503,66.423
				c11.583-2.425,23.758-4.687,36.434-6.76L620.595,233.966z"/>
			<polygon style="fill:#A94F19;" points="598.029,290.226 632.092,301.151 624.68,257.838 593.113,266.047 			"/>
		</g>
		<g>
			<path style="fill:#EDB841;" d="M941.767,247.273l-22.415,25.828l4.304,39.135c-17.095-4.097-35.808-7.823-55.749-11.085
				l11.497-67.184C902.086,237.845,923.057,242.335,941.767,247.273z"/>
			<path style="fill:#DC832C;" d="M879.405,233.966c13.46,2.302,26.3,4.824,38.441,7.522l-13.503,66.423
				c-11.583-2.425-23.758-4.687-36.434-6.76L879.405,233.966z"/>
			<polygon style="fill:#A94F19;" points="901.971,290.226 867.908,301.151 875.32,257.838 906.887,266.047 			"/>
		</g>
		<path style="fill:#EDB841;" d="M750,210.505c-62.733,0-120.304,5.112-165.407,13.633l13.435,66.088
			c42.862-7.09,95.292-11.274,151.971-11.274c56.68,0,109.109,4.184,151.971,11.274l13.435-66.088
			C870.304,215.617,812.733,210.505,750,210.505z"/>
	</g>
	<path id="SVGID_x5F_00000088823275132137497570000005528978301893393082_x5F_" style="fill:none;" d="M591.584,257.838
		c41.424-9.004,97.135-14.522,158.416-14.522s116.992,5.517,158.415,14.522"/>
	<text>	<textPath  xlink:href="#SVGID_x5F_00000088823275132137497570000005528978301893393082_x5F_" startOffset="0%">
<tspan  style="fill:#302E47; font-family:'DMSerifDisplay-Regular'; font-size:43.3967px;">AUGUST 20th</tspan>	</textPath>
</text>
	
		<text transform="matrix(1 0 0 1 344.2324 180.3381)" style="fill:#302E47; font-family:'DMSerifDisplay-Regular'; font-size:108.1193px;">GRAND OPENING</text>
	<rect x="473.923" y="336.657" style="fill:none;" width="552.153" height="44.926"/>
	<text transform="matrix(1 0 0 1 481.119 351.9255)"><tspan x="0" y="0" style="fill:cornflowerblue; font-family:'Montserrat-Light'; font-size:31.5782px;">this is a Portfolio site created by Anuj Singh </tspan><tspan x="70.592" y="24.694" style="fill:#302E47; font-family:'Montserrat-Light'; font-size:26.5782px;">This is created for client cinthia patet</tspan></text>
	<g>
		<g>
			<g>
				<path style="fill:#302E47;" d="M754.7,411.695L754.7,411.695c-10.939,0-19.807,8.868-19.807,19.807l0,0
					c0,10.939,8.868,19.807,19.807,19.807l0,0c10.939,0,19.807-8.868,19.807-19.807l0,0
					C774.507,420.562,765.639,411.695,754.7,411.695z M769.89,439.182c-0.364,1.373-1.439,2.454-2.803,2.821
					c-2.472,0.667-12.387,0.667-12.387,0.667s-9.914,0-12.386-0.667c-1.364-0.367-2.438-1.448-2.803-2.821
					c-0.662-2.489-0.662-7.681-0.662-7.681s0-5.192,0.662-7.681c0.365-1.373,1.439-2.454,2.803-2.821
					c2.473-0.667,12.386-0.667,12.386-0.667s9.914,0,12.387,0.667c1.364,0.367,2.439,1.448,2.803,2.821
					c0.663,2.489,0.663,7.681,0.663,7.681S770.552,436.694,769.89,439.182z"/>
				<polygon style="fill:#302E47;" points="751.458,436.215 759.744,431.502 751.458,426.788 				"/>
			</g>
			<path style="fill:#302E47;" d="M698.595,411.695c-10.939,0-19.807,8.868-19.807,19.807v0c0,10.939,8.868,19.807,19.807,19.807
				c10.939,0,19.807-8.868,19.807-19.807v0C718.402,420.562,709.535,411.695,698.595,411.695z M706.988,427.196
				c0.273,6.091-4.268,12.881-12.308,12.881c-2.445,0-4.721-0.717-6.638-1.946c2.297,0.271,4.591-0.366,6.411-1.793
				c-1.895-0.035-3.495-1.286-4.044-3.007c0.677,0.129,1.345,0.092,1.955-0.074c-2.083-0.418-3.52-2.294-3.473-4.301
				c0.583,0.324,1.252,0.52,1.962,0.542c-1.929-1.288-2.475-3.835-1.34-5.782c2.135,2.62,5.326,4.344,8.925,4.525
				c-0.631-2.709,1.423-5.317,4.218-5.317c1.246,0,2.371,0.525,3.161,1.367c0.985-0.194,1.912-0.555,2.749-1.051
				c-0.323,1.012-1.01,1.861-1.903,2.396c0.875-0.104,1.71-0.337,2.487-0.682C708.568,425.824,707.834,426.587,706.988,427.196z"/>
			<path style="fill:#302E47;" d="M587.809,411.695L587.809,411.695c-10.939,0-19.807,8.868-19.807,19.807v0
				c0,10.939,8.868,19.807,19.807,19.807h0c10.939,0,19.807-8.868,19.807-19.807v0C607.616,420.562,598.748,411.695,587.809,411.695
				z M593.335,423.725c0,0-1.868,0-2.609,0c-0.922,0-1.114,0.377-1.114,1.33c0,0.793,0,2.302,0,2.302h3.723l-0.358,4.043h-3.364
				v12.074h-4.821V431.45h-2.508v-4.093h2.508c0,0,0-0.588,0-3.223c0-3.024,1.618-4.605,5.205-4.605c0.588,0,3.339,0,3.339,0
				V423.725z"/>
			<g>
				<path style="fill:#302E47;" d="M642.491,427.882c-2,0-3.62,1.621-3.62,3.62c0,1.999,1.62,3.62,3.62,3.62
					c1.999,0,3.62-1.621,3.62-3.62C646.111,429.502,644.49,427.882,642.491,427.882z"/>
				<path style="fill:#302E47;" d="M642.491,411.695c-10.939,0-19.807,8.868-19.807,19.807v0c0,10.939,8.868,19.807,19.807,19.807
					s19.807-8.868,19.807-19.807v0C662.298,420.562,653.43,411.695,642.491,411.695z M653.286,435.979
					c-0.053,1.156-0.237,1.945-0.505,2.636c-0.278,0.714-0.649,1.32-1.253,1.924c-0.604,0.604-1.209,0.975-1.924,1.253
					c-0.691,0.268-1.48,0.452-2.636,0.505c-1.159,0.053-1.528,0.065-4.478,0.065c-2.95,0-3.319-0.012-4.478-0.065
					c-1.156-0.053-1.945-0.237-2.636-0.505c-0.714-0.277-1.32-0.649-1.924-1.253c-0.604-0.604-0.975-1.21-1.253-1.924
					c-0.268-0.691-0.452-1.48-0.505-2.636c-0.053-1.158-0.065-1.528-0.065-4.477c0-2.95,0.013-3.319,0.065-4.478
					c0.053-1.156,0.236-1.945,0.505-2.636c0.278-0.714,0.649-1.32,1.253-1.924c0.604-0.604,1.21-0.975,1.924-1.253
					c0.691-0.268,1.481-0.452,2.636-0.505c1.158-0.053,1.528-0.066,4.478-0.066c2.949,0,3.319,0.013,4.478,0.066
					c1.156,0.053,1.945,0.236,2.636,0.505c0.714,0.277,1.32,0.649,1.924,1.253c0.604,0.604,0.975,1.21,1.253,1.924
					c0.268,0.691,0.452,1.48,0.505,2.636c0.052,1.158,0.065,1.528,0.065,4.478C653.351,434.451,653.338,434.821,653.286,435.979z"/>
				<path style="fill:#302E47;" d="M650.957,425.096c-0.198-0.507-0.432-0.868-0.813-1.249c-0.38-0.38-0.742-0.615-1.248-0.812
					c-0.383-0.149-0.958-0.326-2.017-0.374c-1.145-0.053-1.488-0.063-4.388-0.063c-2.9,0-3.243,0.011-4.389,0.063
					c-1.059,0.048-1.634,0.225-2.016,0.374c-0.507,0.197-0.869,0.432-1.249,0.812c-0.38,0.38-0.615,0.742-0.813,1.249
					c-0.148,0.383-0.325,0.958-0.374,2.017c-0.052,1.145-0.063,1.488-0.063,4.388c0,2.9,0.011,3.243,0.063,4.388
					c0.049,1.059,0.226,1.634,0.374,2.016c0.197,0.507,0.433,0.869,0.813,1.249c0.38,0.38,0.741,0.615,1.249,0.812
					c0.383,0.149,0.958,0.326,2.016,0.374c1.146,0.052,1.489,0.063,4.389,0.063c2.9,0,3.243-0.011,4.388-0.063
					c1.059-0.048,1.634-0.225,2.017-0.374c0.507-0.197,0.868-0.432,1.248-0.812c0.38-0.38,0.615-0.742,0.813-1.249
					c0.149-0.383,0.326-0.957,0.374-2.016c0.052-1.145,0.063-1.488,0.063-4.388c0-2.9-0.011-3.243-0.063-4.388
					C651.283,426.054,651.106,425.479,650.957,425.096z M642.491,437.078c-3.08,0-5.577-2.497-5.577-5.577
					c0-3.08,2.497-5.577,5.577-5.577c3.08,0,5.577,2.496,5.577,5.577C648.068,434.582,645.571,437.078,642.491,437.078z
					 M648.288,427.008c-0.72,0-1.304-0.583-1.304-1.303c0-0.72,0.584-1.303,1.304-1.303s1.303,0.584,1.303,1.303
					C649.591,426.424,649.008,427.008,648.288,427.008z"/>
			</g>
		</g>
	</g>
	<g>
		
			<text transform="matrix(1 0 0 1 787.2253 437.6205)" style="fill:#302E47; font-family:'Montserrat-Regular'; font-size:19.5627px;">@youraccount</text>
	</g>
	<path style="fill:#302E47;" d="M669.863,69.787c0.721,2.305,1.443,4.611,2.167,6.923c-6.997,0.843-12.946-6.039-10.926-13.017
		c1.167-4.03,3.233-7.8,4.811-11.491c-1.473,1.581-3.195,3.429-4.914,5.274c-4.256-5.315-1.373-14.105,5.517-15.834
		c4.196-1.053,8.627-1.172,12.617-1.669c-1.995-0.46-4.479-1.032-6.956-1.603c1.95-6.267,11.412-8.206,16.515-3.061
		c2.478,2.498,4.269,5.679,6.349,8.566c0.352,0.488,0.593,1.057,1.307,1.43c-0.714-2.298-1.427-4.595-2.14-6.891
		c6.796-1.052,12.758,5.911,10.982,12.926c-0.529,2.089-1.36,4.127-2.275,6.084c-0.886,1.894-2.058,3.654-2.884,5.725
		c1.708-1.82,3.416-3.639,5.259-5.603c1.789,2.359,2.258,5.02,1.668,7.821c-0.898,4.263-3.396,7.349-7.738,8.213
		c-4.076,0.811-8.266,1.052-12.139,1.511c2.031,0.477,4.485,1.053,6.938,1.63c-1.813,5.893-10.606,8.057-15.769,3.699
		c-1.951-1.646-3.525-3.785-5.072-5.847c-1.121-1.494-1.914-3.234-2.853-4.864C670.172,69.736,670.017,69.762,669.863,69.787z
		 M683.19,46.618c-6.111,0.019-11.011,4.873-10.999,10.896c0.012,6.078,4.89,10.956,10.946,10.945
		c6.044-0.011,10.957-4.971,10.896-10.998C693.973,51.492,689.081,46.6,683.19,46.618z"/>
	<g>
		
			<text transform="matrix(1 0 0 1 720.1724 64.0775)" style="fill:#302E47; font-family:'DMSerifDisplay-Regular'; font-size:23.1374px;">Portfolio</text>
	</g>
</g>
</svg>
